<svg xmlns="http://www.w3.org/2000/svg" xmlns:xlink="http://www.w3.org/1999/xlink" width="573.58745" height="189.25638" viewBox="0 0 573.58745 189.25638">
  <defs>
    <style>
      .cls-1 {
        fill: #fff;
      }

      .cls-2 {
        fill: #1c7cf3;
      }

      .cls-3 {
        fill: url(#linear-gradient);
      }

      .cls-4 {
        fill: url(#linear-gradient-2);
      }

      .cls-5 {
        fill: url(#linear-gradient-3);
      }
    </style>
    <linearGradient id="linear-gradient" x1="2.08541" y1="18.71403" x2="42.62072" y2="18.71403" gradientUnits="userSpaceOnUse">
      <stop offset="0" stop-color="#5ac25a"/>
      <stop offset="0.3352" stop-color="#09caa9"/>
      <stop offset="0.67318" stop-color="#3cb1ec"/>
      <stop offset="1" stop-color="#1c7cf3"/>
    </linearGradient>
    <linearGradient id="linear-gradient-2" x1="0.00002" y1="36.01768" x2="43.01885" y2="36.01768" xlink:href="#linear-gradient"/>
    <linearGradient id="linear-gradient-3" x1="1.99212" y1="7.06667" x2="42.51183" y2="7.06667" xlink:href="#linear-gradient"/>
  </defs>
  <g id="Guides">
    <path class="cls-1" d="M92.51866,96.14356V113.044h-70.46V38.634A16.5901,16.5901,0,0,1,38.64879,22.044H90.82871V38.94337H42.98887V58.70411h42.25V75.084h-42.25V96.14356Z"/>
    <path class="cls-1" d="M114.1627,103.81348Q103.306,93.02491,103.30723,73.00391V22.044h21.06006V72.22364q0,24.44238,20.28027,24.44043,9.87817,0,15.08008-5.915,5.198-5.915,5.19971-18.52539V22.044h20.80029v50.96q0,20.02-10.855,30.80957-10.856,10.793-30.355,10.79Q125.01768,114.60352,114.1627,103.81348Z"/>
    <path class="cls-1" d="M256.70664,113.044l-17.5498-25.35058H219.78672V113.044H198.72666v-91H238.1168q12.09009,0,20.99463,4.0293a31.207,31.207,0,0,1,13.71533,11.44043,31.52919,31.52919,0,0,1,4.81006,17.5498,30.88559,30.88559,0,0,1-4.875,17.48535A30.89833,30.89833,0,0,1,258.9166,83.794l20.41016,29.25Zm-5.33007-69.74512q-4.94166-4.09569-14.43018-4.09472H219.78672V70.92383h17.15967q9.48852,0,14.43018-4.16015,4.93872-4.15869,4.93994-11.7002Q256.31651,47.395,251.37657,43.29883Z"/>
    <path class="cls-1" d="M362.73448,96.14356V113.044h-70.46V38.59953A16.55559,16.55559,0,0,1,308.83009,22.044h52.21444V38.94337H313.20469V58.70411h42.25V75.084h-42.25V96.14356Z"/>
    <path class="cls-1" d="M410.65342,77.294,398.43369,90.03419V113.044H377.50352v-91h20.93017V64.55372L438.7335,22.044h23.3999L424.43369,62.60352,464.34336,113.044H439.77354Z"/>
    <path class="cls-1" d="M541.40244,93.544h-42.25l-8.06,19.5H469.51231l40.56006-91h20.7998l40.68994,91H549.462Zm-6.63037-15.99023L520.34239,42.71387,505.91221,77.55372Z"/>
    <g>
      <path class="cls-2" d="M29.07323,175.66657a15.14614,15.14614,0,0,1-5.895-5.73779,16.84363,16.84363,0,0,1,0-16.4248,15.11721,15.11721,0,0,1,5.91748-5.7378,17.32451,17.32451,0,0,1,8.46-2.06982,17.53128,17.53128,0,0,1,6.48,1.16992,13.44929,13.44929,0,0,1,5.04,3.41992l-2.11523,2.11524a12.54759,12.54759,0,0,0-9.31494-3.73487,13.68739,13.68739,0,0,0-6.79493,1.71,12.49023,12.49023,0,0,0-4.79248,4.67968,13.66846,13.66846,0,0,0,0,13.32032,12.48685,12.48685,0,0,0,4.79248,4.67968,13.68222,13.68222,0,0,0,6.79493,1.71,12.3762,12.3762,0,0,0,9.31494-3.77978l2.11523,2.11474a13.617,13.617,0,0,1-5.0625,3.44288,17.411,17.411,0,0,1-6.50244,1.19238A17.18927,17.18927,0,0,1,29.07323,175.66657Z"/>
      <path class="cls-2" d="M55.51024,145.96638h3.33008V174.5865H76.48046v2.87988H55.51024Z"/>
      <path class="cls-2" d="M82.23973,145.96638h3.33008v31.5H82.23973Z"/>
      <path class="cls-2" d="M118.77928,145.96638v31.5h-2.74511l-20.25-25.56006v25.56006H92.45409v-31.5h2.74512l20.29492,25.56006V145.96638Z"/>
      <path class="cls-2" d="M126.56346,145.96638h3.33008v31.5h-3.33008Z"/>
      <path class="cls-2" d="M146.521,175.66657a15.14614,15.14614,0,0,1-5.895-5.73779,16.8437,16.8437,0,0,1,0-16.4248,15.11721,15.11721,0,0,1,5.91748-5.7378,17.32452,17.32452,0,0,1,8.46-2.06982,17.53132,17.53132,0,0,1,6.48,1.16992,13.44925,13.44925,0,0,1,5.04,3.41992l-2.11523,2.11524a12.54759,12.54759,0,0,0-9.31494-3.73487,13.68736,13.68736,0,0,0-6.79492,1.71,12.4901,12.4901,0,0,0-4.79248,4.67968,13.66839,13.66839,0,0,0,0,13.32032,12.48671,12.48671,0,0,0,4.79248,4.67968,13.68218,13.68218,0,0,0,6.79492,1.71,12.3762,12.3762,0,0,0,9.31494-3.77978l2.11523,2.11474a13.617,13.617,0,0,1-5.0625,3.44288,17.41093,17.41093,0,0,1-6.50244,1.19238A17.18933,17.18933,0,0,1,146.521,175.66657Z"/>
      <path class="cls-2" d="M196.40282,169.05134H178.853l-3.77978,8.415H171.6079l14.40039-31.5H189.293l14.3999,31.5h-3.50977Zm-1.21484-2.7002-7.56006-16.91992-7.56006,16.91992Z"/>
      <path class="cls-2" d="M208.23778,145.96638h3.33008V174.5865H229.208v2.87988H208.23778Z"/>
      <path class="cls-2" d="M270.3369,169.05134H252.7871l-3.77979,8.415H245.542l14.40039-31.5H263.227l14.3999,31.5h-3.50977Zm-1.21484-2.7002L261.562,149.43122l-7.56006,16.91992Z"/>
      <path class="cls-2" d="M284.87157,145.96638h3.33008v31.5h-3.33008Z"/>
      <path class="cls-2" d="M335.541,148.84626a10.85451,10.85451,0,0,1,0,15.81738q-3.4204,2.85866-9.45019,2.85791h-8.46v9.94483h-3.33008v-31.5h11.79Q332.12084,145.96638,335.541,148.84626Zm-2.38525,13.70264a7.08408,7.08408,0,0,0,2.4751-5.78272,7.18942,7.18942,0,0,0-2.4751-5.87207q-2.47485-2.04785-7.15479-2.04785h-8.37011v15.75H326.001Q330.6804,164.59626,333.15575,162.5489Z"/>
      <path class="cls-2" d="M345.48534,145.96638h3.33008V174.5865h17.64013v2.87988H345.48534Z"/>
      <path class="cls-2" d="M396.55956,169.05134H379.00975l-3.77978,8.415h-3.46533l14.40039-31.5h3.28466l14.39991,31.5h-3.50977Zm-1.21485-2.7002-7.56005-16.91992-7.56006,16.91992Z"/>
      <path class="cls-2" d="M415.63964,148.84626H404.56981v-2.87988h25.46973v2.87988H418.96971v28.62012h-3.33007Z"/>
      <path class="cls-2" d="M439.80419,148.84626v12.375h16.29v2.87988h-16.29v13.36524h-3.33008v-31.5h21.59961v2.87988Z"/>
      <path class="cls-2" d="M471.86571,175.64411a15.27265,15.27265,0,0,1-5.93945-5.73779,16.75747,16.75747,0,0,1,0-16.37988,15.27267,15.27267,0,0,1,5.93945-5.7378,18.23653,18.23653,0,0,1,16.91992-.02246,15.329,15.329,0,0,1,5.918,5.7378,16.69085,16.69085,0,0,1,0,16.4248,15.31866,15.31866,0,0,1-5.918,5.73779,18.23646,18.23646,0,0,1-16.91992-.02246Zm15.23242-2.56543a12.21892,12.21892,0,0,0,4.72559-4.67968,13.913,13.913,0,0,0,0-13.36524,12.2222,12.2222,0,0,0-4.72559-4.67969,14.38867,14.38867,0,0,0-13.52246,0,12.32912,12.32912,0,0,0-4.76953,4.67969,13.75495,13.75495,0,0,0,0,13.36524,12.32579,12.32579,0,0,0,4.76953,4.67968,14.38867,14.38867,0,0,0,13.52246,0Z"/>
      <path class="cls-2" d="M523.36864,177.46638l-7.2002-10.125a22.87329,22.87329,0,0,1-2.5205.13476h-8.46v9.99024H501.8579v-31.5h11.79q6.03075,0,9.45019,2.87988a9.80375,9.80375,0,0,1,3.41992,7.91992,9.76677,9.76677,0,0,1-7.20019,9.90039l7.69531,10.79981Zm-2.65527-14.895a8.125,8.125,0,0,0,0-11.67725q-2.47559-2.04785-7.15528-2.04785H505.188v15.79492h8.37011Q518.23827,164.64118,520.71337,162.57136Z"/>
      <path class="cls-2" d="M566.43309,145.96638v31.5h-3.19531v-25.2002l-12.375,21.19532h-1.5752l-12.375-21.06006v25.06494h-3.19531v-31.5h2.74512l13.68066,23.355,13.54493-23.355Z"/>
    </g>
    <path class="cls-3" d="M14.57039,26.726A24.1597,24.1597,0,0,1,26.78432,14.62788L10.67257,10.702Z"/>
    <path class="cls-4" d="M12.44753,44.08791V36.61433a23.8129,23.8129,0,0,1,1.62756-8.66687L0,36.49715Z"/>
    <path class="cls-5" d="M36.49715,0l-8.57843,14.1333a24.03557,24.03557,0,0,1,8.57843-1.57007h7.62024Z"/>
  </g>
</svg>
